#N canvas 127 66 894 694 10;
#X obj 813 439 hsl 64 12 0.1 1 0 0 empty empty speed 16 6 1 8 -262144
-1 -1 0 1;
#X msg 214 51 listen 3010;
#X obj 215 82 netreceive -u -b 3010;
#X obj 214 13 loadbang;
#X obj 536 137 f;
#X obj 592 135 + 1;
#X floatatom 491 209 5 0 0 0 - - -;
#X msg 593 206 0;
#X text 718 116 Set ending number of counter;
#X floatatom 676 130 5 0 0 0 - - -;
#X obj 677 165 bng 19 250 50 0 empty empty empty 0 -10 0 12 -262144
-1 -1;
#X obj 676 72 loadbang;
#X obj 593 167 select;
#X obj 620 272 select 1 2 3 4 5;
#X floatatom 607 319 5 0 0 0 - - -;
#X obj 564 359 tgl 19 0 empty empty empty 0 -10 0 12 -262144 -1 -1
0 1;
#X obj 617 359 tgl 19 0 empty empty empty 0 -10 0 12 -262144 -1 -1
0 1;
#X obj 666 360 tgl 19 0 empty empty empty 0 -10 0 12 -262144 -1 -1
0 1;
#X obj 720 357 tgl 19 0 empty empty empty 0 -10 0 12 -262144 -1 -1
0 1;
#X obj 766 358 tgl 19 0 empty empty empty 0 -10 0 12 -262144 -1 -1
0 1;
#X floatatom 616 243 5 0 0 0 - - -;
#X obj 485 95 bng 19 250 50 0 empty empty empty 0 -10 0 12 -262144
-1 -1;
#X msg 676 100 5;
#X obj 535 210 t f b;
#X msg 212 327 \; pd dsp \$1;
#X obj 211 294 tgl 17 0 empty empty empty 17 7 0 10 -228856 -1 -1 1
1;
#X text 233 293 DSP on/off;
#X obj 217 124 oscparse;
#X obj 194 183 unpackOSC;
#X floatatom 193 255 5 0 0 0 - - -;
#X obj 191 212 route /rotary /change /pause;
#X obj 303 249 bng 15 250 50 0 empty empty empty 17 7 0 10 -262144
-1 -1;
#X msg 81 589 connect 127.0.0.1 3020, f 21;
#X floatatom 58 658 5 0 0 0 - - -;
#X obj 60 628 netsend -u -b 3020;
#X obj 265 600 list trim;
#X obj 266 516 oscformat /number;
#X obj 135 552 loadbang;
#X msg 491 334 \$1;
#X obj 58 519 oscformat /dsp;
#X obj 58 554 list trim;
#N canvas 240 105 450 300 jet_engine 0;
#X obj 94 56 inlet;
#X obj 93 111 lop~ 0.2;
#X obj 94 88 sig~;
#X obj 49 178 +~;
#N canvas 508 156 133 284 burn 0;
#X obj 0 44 noise~;
#X obj 73 -18 loadbang;
#X msg 102 17 0.6;
#X obj 0 149 clip~ -1 1;
#X obj 32 -52 inlet~;
#X obj 0 214 outlet~;
#X obj 25 17 *~ 150;
#X obj 0 128 *~ 120;
#X obj 0 107 hip~ 120;
#X obj 25 -4 *~;
#X obj 0 65 bp~ 8000 0.5;
#X obj 31 170 *~ 12000;
#X msg 73 17 1;
#X obj 0 86 vcf~ 0 1;
#X obj 0 193 vcf~ 0 0.6;
#X connect 0 0 10 0;
#X connect 1 0 2 0;
#X connect 1 0 12 0;
#X connect 2 0 14 2;
#X connect 3 0 14 0;
#X connect 4 0 9 0;
#X connect 4 0 9 1;
#X connect 4 0 11 0;
#X connect 6 0 13 1;
#X connect 7 0 3 0;
#X connect 8 0 7 0;
#X connect 9 0 6 0;
#X connect 10 0 13 0;
#X connect 11 0 14 1;
#X connect 12 0 13 2;
#X connect 13 0 8 0;
#X connect 14 0 5 0;
#X restore 128 136 pd burn;
#N canvas 0 0 212 234 turbine 0;
#X msg 13 21 3097 4495 5588 7471 11000;
#X obj 0 129 osc~;
#X obj 39 128 osc~;
#X obj 78 127 osc~;
#X obj 116 127 osc~;
#X obj 156 129 osc~;
#X obj 13 42 unpack f f f f f;
#X obj 0 68 sig~;
#X obj 38 68 sig~;
#X obj 78 67 sig~;
#X obj 116 67 sig~;
#X obj 155 67 sig~;
#X obj 0 97 *~;
#X obj 39 95 *~;
#X obj 79 93 *~;
#X obj 116 91 *~;
#X obj 156 92 *~;
#X obj 19 165 *~ 0.25;
#X obj 137 165 *~ 0.4;
#X obj 13 0 loadbang;
#X obj 77 196 clip~ -0.9 0.9;
#X obj 77 217 outlet~;
#X obj 76 0 inlet~ engine speed;
#X connect 0 0 6 0;
#X connect 1 0 17 0;
#X connect 2 0 17 0;
#X connect 3 0 20 0;
#X connect 4 0 18 0;
#X connect 5 0 18 0;
#X connect 6 0 7 0;
#X connect 6 1 8 0;
#X connect 6 2 9 0;
#X connect 6 3 10 0;
#X connect 6 4 11 0;
#X connect 7 0 12 0;
#X connect 8 0 13 0;
#X connect 9 0 14 0;
#X connect 10 0 15 0;
#X connect 11 0 16 0;
#X connect 12 0 1 0;
#X connect 13 0 2 0;
#X connect 14 0 3 0;
#X connect 15 0 4 0;
#X connect 16 0 5 0;
#X connect 17 0 20 0;
#X connect 18 0 20 0;
#X connect 19 0 0 0;
#X connect 20 0 21 0;
#X connect 22 0 16 1;
#X connect 22 0 15 1;
#X connect 22 0 14 1;
#X connect 22 0 13 1;
#X connect 22 0 12 1;
#X restore 48 138 pd turbine;
#X obj 49 198 lop~ 11000;
#X obj 48 158 *~ 0.5;
#X obj 51 256 dac~;
#X obj 49 218 *~ 0.1;
#X connect 0 0 2 0;
#X connect 1 0 4 0;
#X connect 1 0 5 0;
#X connect 2 0 1 0;
#X connect 3 0 6 0;
#X connect 4 0 3 1;
#X connect 5 0 7 0;
#X connect 6 0 9 0;
#X connect 7 0 3 0;
#X connect 9 0 8 0;
#X connect 9 0 8 1;
#X restore 808 479 pd jet_engine;
#N canvas 243 128 450 300 thunder 0;
#X obj 248 113 *~ 0.9;
#N canvas 152 29 188 323 afterimage 0;
#X obj 1 114 noise~;
#X obj 16 176 noise~;
#X obj 1 199 *~;
#X obj 1 241 bp~ 333 4;
#X obj 1 135 lop~ 3;
#X obj 1 220 clip~ -1 1;
#X obj 52 68 line;
#X obj 52 109 + 3;
#X obj 52 89 * 30;
#X obj 1 156 *~ 80;
#X obj 117 67 line;
#X obj 1 263 *~;
#X msg 52 48 1 \, 0 600;
#X msg 117 47 1 \, 0 6000;
#X obj 1 283 *~ 0.9;
#X obj 85 23 del 200;
#X obj 85 1 inlet;
#X obj 1 303 outlet~;
#X connect 0 0 4 0;
#X connect 1 0 2 1;
#X connect 2 0 5 0;
#X connect 3 0 11 0;
#X connect 4 0 9 0;
#X connect 5 0 3 0;
#X connect 6 0 8 0;
#X connect 7 0 4 1;
#X connect 8 0 7 0;
#X connect 9 0 2 0;
#X connect 10 0 11 1;
#X connect 11 0 14 0;
#X connect 12 0 6 0;
#X connect 13 0 10 0;
#X connect 14 0 17 0;
#X connect 15 0 12 0;
#X connect 15 0 13 0;
#X connect 16 0 15 0;
#X restore 248 91 pd afterimage;
#X obj 272 262 distance;
#X obj 323 238 line;
#X obj 11 71 r go;
#X obj 248 68 r go;
#X obj 350 66 r go;
#X obj 128 70 r go;
#X obj 186 49 line;
#X msg 186 26 1 \, 0 9000;
#X obj 186 4 r go;
#X obj 323 193 r go;
#X obj 272 348 dac~;
#X obj 286 288 s~ udly;
#N canvas 265 516 402 108 box 0;
#X obj 319 51 switch~;
#X obj 319 29 inlet;
#X obj 1 7 udly 12000;
#X obj 11 17 udly 12000;
#X obj 21 27 udly 12000;
#X obj 31 37 udly 12000;
#X obj 41 47 udly 12000;
#X obj 51 57 udly 12000;
#X obj 61 67 udly 12000;
#X obj 71 77 udly 12000;
#X obj 87 7 udly 12000;
#X obj 97 17 udly 12000;
#X obj 107 27 udly 12000;
#X obj 117 37 udly 12000;
#X obj 127 47 udly 12000;
#X obj 137 57 udly 12000;
#X obj 147 67 udly 12000;
#X obj 157 77 udly 12000;
#X obj 172 6 udly 12000;
#X obj 182 16 udly 12000;
#X obj 192 26 udly 12000;
#X obj 202 36 udly 12000;
#X obj 212 46 udly 12000;
#X obj 222 56 udly 12000;
#X obj 232 66 udly 12000;
#X obj 242 76 udly 12000;
#X connect 1 0 0 0;
#X restore 465 135 pd box of delays;
#X obj 126 264 catch~ la;
#X obj 368 263 catch~ ra;
#X obj 465 115 tgl 15 0 empty empty empty 0 -6 0 8 -262144 -1 -1 0
1;
#X obj 490 112 s shake;
#X obj 490 91 r go;
#X obj 12 12 bng 15 250 50 0 empty empty empty 0 -6 0 8 -262144 -1
-1;
#X obj 12 34 s go;
#X obj 186 71 * 2000;
#X msg 323 215 0 \, 1 12000;
#X obj 248 135 throw~ out;
#X obj 197 264 catch~ out;
#X obj 350 135 throw~ distance;
#X obj 129 135 throw~ distance;
#X obj 272 173 catch~ distance;
#N canvas 132 138 177 510 rumble 0;
#X obj 17 110 noise~;
#X obj 33 314 -~ 0.5;
#X obj 33 339 *~;
#X obj 33 359 *~ -4;
#X obj 33 379 +~ 1;
#X obj 33 399 *~ 0.5;
#X obj 75 28 noise~;
#X obj 75 89 max~ 0;
#X obj 17 172 samphold~;
#X msg 938 102 0.54;
#X obj 75 151 phasor~;
#X obj 75 111 *~ 3000;
#X obj 17 419 *~;
#X obj 17 439 hip~ 100;
#X obj 17 192 rpole~ 0.99;
#X obj 17 212 *~ 0.04;
#X obj 75 131 +~ 1;
#X obj 81 -12 inlet density;
#X obj 17 131 lop~;
#X obj 17 152 lop~;
#X obj 75 68 lop~;
#X obj 75 48 lop~;
#X obj 1 480 outlet~;
#X obj 17 241 min~ 0;
#X obj 17 263 *~ -1;
#X obj 65 240 max~ 0;
#X obj 17 286 +~;
#X obj 1 28 vline~;
#X obj 1 459 *~;
#X obj 1 -12 inlet trig;
#X msg 1 8 1 50 \, 0 8000 50;
#X connect 0 0 18 0;
#X connect 1 0 2 0;
#X connect 1 0 2 1;
#X connect 2 0 3 0;
#X connect 3 0 4 0;
#X connect 4 0 5 0;
#X connect 5 0 12 1;
#X connect 6 0 21 0;
#X connect 7 0 11 0;
#X connect 8 0 14 0;
#X connect 10 0 8 1;
#X connect 11 0 16 0;
#X connect 12 0 13 0;
#X connect 13 0 28 1;
#X connect 14 0 15 0;
#X connect 15 0 25 0;
#X connect 15 0 23 0;
#X connect 16 0 10 0;
#X connect 17 0 20 1;
#X connect 17 0 21 1;
#X connect 17 0 18 1;
#X connect 17 0 19 1;
#X connect 18 0 19 0;
#X connect 19 0 8 0;
#X connect 20 0 7 0;
#X connect 21 0 20 0;
#X connect 23 0 24 0;
#X connect 24 0 26 0;
#X connect 25 0 26 1;
#X connect 26 0 1 0;
#X connect 26 0 12 0;
#X connect 27 0 28 0;
#X connect 28 0 22 0;
#X connect 29 0 30 0;
#X connect 30 0 27 0;
#X restore 128 93 pd rumble;
#N canvas 264 575 152 190 strike 0;
#X obj 0 172 outlet~;
#X obj 1 44 route 0 1 2 3;
#X obj 1 0 inlet;
#X obj 1 23 strike-pattern;
#X obj 1 67 strike-sound;
#X obj 22 87 strike-sound;
#X obj 44 107 strike-sound;
#X obj 65 126 strike-sound;
#X connect 1 0 4 0;
#X connect 1 1 5 0;
#X connect 1 2 6 0;
#X connect 1 3 7 0;
#X connect 2 0 3 0;
#X connect 3 0 1 0;
#X connect 4 0 0 0;
#X connect 5 0 0 0;
#X connect 6 0 0 0;
#X connect 7 0 0 0;
#X restore 11 94 pd strike sound;
#N canvas 148 116 232 212 deep 0;
#X obj 8 -8 noise~;
#X obj 7 161 *~;
#X obj 84 115 *~;
#X obj 84 49 del 1000;
#X obj 84 28 inlet;
#X obj 7 181 outlet~;
#X obj 84 91 vline~;
#X msg 84 70 1 2000 \, 0 20000 2000;
#X obj 8 12 lop~ 80;
#X obj 8 32 lop~ 80;
#X obj 8 52 hip~ 15;
#X obj 8 92 clip~ -1 1;
#X obj 8 72 *~ 12;
#X obj 8 112 lop~ 80;
#X obj 8 132 lop~ 80;
#X connect 0 0 8 0;
#X connect 1 0 5 0;
#X connect 2 0 1 1;
#X connect 3 0 7 0;
#X connect 4 0 3 0;
#X connect 6 0 2 0;
#X connect 6 0 2 1;
#X connect 7 0 6 0;
#X connect 8 0 9 0;
#X connect 9 0 10 0;
#X connect 10 0 12 0;
#X connect 11 0 13 0;
#X connect 12 0 11 0;
#X connect 13 0 14 0;
#X connect 14 0 1 0;
#X restore 350 88 pd deep;
#X obj 11 135 throw~ out;
#X obj 11 115 *~ 0.3;
#X obj 129 114 *~ 0.3;
#X obj 350 111 *~ 0.5;
#X obj 90 10 inlet;
#X obj 80 36 sel 1;
#X connect 0 0 24 0;
#X connect 1 0 0 0;
#X connect 2 0 12 0;
#X connect 2 0 12 1;
#X connect 2 0 13 0;
#X connect 3 0 2 1;
#X connect 4 0 30 0;
#X connect 5 0 1 0;
#X connect 6 0 31 0;
#X connect 7 0 29 0;
#X connect 8 0 22 0;
#X connect 9 0 8 0;
#X connect 10 0 9 0;
#X connect 11 0 23 0;
#X connect 15 0 12 0;
#X connect 16 0 12 1;
#X connect 17 0 14 0;
#X connect 19 0 18 0;
#X connect 20 0 21 0;
#X connect 22 0 29 1;
#X connect 23 0 3 0;
#X connect 25 0 12 0;
#X connect 25 0 12 1;
#X connect 28 0 2 0;
#X connect 29 0 34 0;
#X connect 30 0 33 0;
#X connect 31 0 35 0;
#X connect 33 0 32 0;
#X connect 34 0 27 0;
#X connect 35 0 26 0;
#X connect 36 0 37 0;
#X connect 37 0 20 0;
#X restore 497 493 pd thunder;
#N canvas 157 163 450 300 rain 0;
#X obj 19 140 dac~;
#X obj 75 74 + 0.004;
#X obj 19 118 hip~ 2000;
#X obj 19 94 drops 7.7 0.013 0.16 3;
#X obj 113 8 inlet;
#X obj 232 20 inlet;
#X obj 75 54 / 20;
#X connect 1 0 3 1;
#X connect 2 0 0 0;
#X connect 2 0 0 1;
#X connect 3 0 2 0;
#X connect 4 0 6 0;
#X connect 6 0 1 0;
#X restore 598 470 pd rain;
#N canvas 326 183 549 300 wind 0;
#X obj 67 39 dac~;
#X obj -2 -2 noise~;
#N canvas 0 0 175 257 windspeed 0;
#X obj 13 41 +~ 1;
#X obj 12 151 +~;
#X obj 13 64 *~ 0.25;
#X obj 28 129 +~;
#X obj 13 173 clip~ 0 1;
#N canvas 0 0 184 221 squall 0;
#X obj 78 41 noise~;
#X obj 77 108 hip~ 0;
#X obj 78 64 lop~ 3;
#X obj 78 85 lop~ 3;
#X obj 17 112 *~;
#X obj 38 160 *~;
#X obj 16 42 max~ 0.4;
#X obj 16 64 -~ 0.4;
#X obj 16 87 *~ 8;
#X obj 78 129 *~ 20;
#X obj 16 14 inlet~;
#X obj 40 184 outlet~;
#X connect 0 0 2 0;
#X connect 1 0 9 0;
#X connect 2 0 3 0;
#X connect 3 0 1 0;
#X connect 4 0 5 0;
#X connect 5 0 11 0;
#X connect 6 0 7 0;
#X connect 7 0 8 0;
#X connect 8 0 4 0;
#X connect 8 0 4 1;
#X connect 9 0 5 1;
#X connect 10 0 6 0;
#X restore 83 98 pd squall;
#N canvas 0 0 190 244 gust 0;
#X obj 9 15 noise~;
#X obj 8 82 hip~ 0;
#X obj 8 157 *~;
#X obj 76 72 *~;
#X obj 75 49 +~ 0.5;
#X obj 76 96 -~ 0.125;
#X obj 9 59 lop~ 0.5;
#X obj 9 38 lop~ 0.5;
#X obj 9 103 *~ 50;
#X obj 75 9 inlet~;
#X obj 8 182 outlet~;
#X connect 0 0 7 0;
#X connect 1 0 8 0;
#X connect 2 0 10 0;
#X connect 3 0 5 0;
#X connect 4 0 3 0;
#X connect 4 0 3 1;
#X connect 5 0 2 1;
#X connect 6 0 1 0;
#X connect 7 0 6 0;
#X connect 8 0 2 0;
#X connect 9 0 4 0;
#X restore 27 98 pd gust;
#X obj 13 199 outlet~;
#X obj 13 19 osc~ 0.1;
#X connect 0 0 2 0;
#X connect 1 0 4 0;
#X connect 2 0 5 0;
#X connect 2 0 1 0;
#X connect 2 0 6 0;
#X connect 3 0 1 1;
#X connect 4 0 7 0;
#X connect 5 0 3 1;
#X connect 6 0 3 0;
#X connect 8 0 0 0;
#X restore -2 84 pd windspeed;
#X obj -2 106 delwrite~ a 3000;
#X obj 68 -2 catch~ l;
#X obj 90 18 catch~ r;
#X obj -2 20 s~ white;
#X obj 156 -2 vd~ a 0;
#X obj 213 -2 r~ white;
#X obj 156 106 throw~ l;
#X obj 221 106 throw~ r;
#X obj 156 43 *~;
#X obj 156 85 fcpan 0.51;
#X obj 156 20 +~ 0.2;
#X obj 213 19 bp~ 800 1;
#X obj 156 64 *~ \$1;
#X msg 316 63 0.3;
#X msg 274 37 0;
#X obj 345 23 inlet;
#X obj 413 54 sel 0 1;
#X connect 1 0 6 0;
#X connect 2 0 3 0;
#X connect 4 0 0 0;
#X connect 5 0 0 1;
#X connect 7 0 13 0;
#X connect 8 0 14 0;
#X connect 11 0 15 0;
#X connect 12 0 9 0;
#X connect 12 1 10 0;
#X connect 13 0 11 0;
#X connect 14 0 11 1;
#X connect 15 0 12 0;
#X connect 16 0 15 1;
#X connect 17 0 15 1;
#X connect 18 0 19 0;
#X connect 19 0 17 0;
#X connect 19 1 16 0;
#X restore 672 473 pd wind;
#N canvas 338 190 450 300 insects 0;
#N canvas 0 0 538 497 chirper 0;
#X obj 220 458 dac~;
#X obj 222 357 *~;
#X obj 222 260 cos~;
#X obj 222 238 +~ 0.25;
#X obj 222 282 clip~ 0 1;
#X obj 237 324 osc~ 12342;
#X obj 251 304 osc~ 5134;
#X obj 239 171 wrap~;
#X obj 223 214 +~;
#X obj 160 133 clip~ 0 1;
#X obj 160 170 wrap~;
#X obj 239 134 clip~ 1 4;
#X obj 205 94 *~ 44;
#X obj 204 71 phasor~ 0.8;
#X obj 222 381 *~ 0.05;
#X obj 221 431 *~;
#X obj 237 406 inlet~;
#X connect 1 0 14 0;
#X connect 2 0 4 0;
#X connect 3 0 2 0;
#X connect 4 0 1 0;
#X connect 5 0 1 1;
#X connect 6 0 1 1;
#X connect 7 0 8 1;
#X connect 8 0 3 0;
#X connect 9 0 10 0;
#X connect 10 0 8 0;
#X connect 11 0 7 0;
#X connect 12 0 9 0;
#X connect 12 0 11 0;
#X connect 13 0 12 0;
#X connect 14 0 15 0;
#X connect 15 0 0 1;
#X connect 15 0 0 0;
#X connect 16 0 15 1;
#X restore 249 71 pd chirper;
#N canvas 0 0 772 704 mosquito 0;
#X obj 157 329 phasor~ 600;
#X obj 247 329 phasor~ 600;
#X obj 248 304 +~;
#X obj 264 276 osc~ 0.2;
#X obj 226 234 +~;
#X obj 289 98 noise~;
#X obj 158 358 >~ 0.97;
#X obj 248 358 >~ 0.97;
#X obj 289 120 lop~ 1;
#X obj 289 142 *~ 2000;
#X obj 214 554 *~;
#X obj 263 555 *~;
#X obj 237 488 sig~ 1;
#X obj 236 513 -~;
#X obj 226 143 lop~ 0.2;
#X obj 341 256 noise~;
#X obj 343 347 clip~ 0 1;
#X obj 343 323 *~ 1e+09;
#X obj 342 278 lop~ 0.2;
#X obj 343 300 lop~ 0.2;
#X obj 196 430 *~;
#X obj 314 203 lop~ 0.5;
#X obj 303 166 *~ 0.2;
#X obj 227 620 dac~;
#X obj 194 456 *~ 0.02;
#X obj 226 167 *~ 3000;
#X obj 226 189 +~ 600;
#X obj 159 384 bp~ 8000 12;
#X obj 250 387 bp~ 8000 12;
#X obj 214 587 *~;
#X obj 262 586 *~;
#X obj 300 553 inlet~;
#X connect 0 0 6 0;
#X connect 1 0 7 0;
#X connect 2 0 1 0;
#X connect 3 0 2 1;
#X connect 4 0 0 0;
#X connect 4 0 2 0;
#X connect 5 0 8 0;
#X connect 5 0 14 0;
#X connect 6 0 27 0;
#X connect 7 0 28 0;
#X connect 8 0 9 0;
#X connect 9 0 4 1;
#X connect 9 0 3 0;
#X connect 9 0 22 0;
#X connect 10 0 29 0;
#X connect 11 0 30 0;
#X connect 12 0 13 0;
#X connect 13 0 10 1;
#X connect 14 0 25 0;
#X connect 15 0 18 0;
#X connect 16 0 20 1;
#X connect 17 0 16 0;
#X connect 18 0 19 0;
#X connect 19 0 17 0;
#X connect 20 0 24 0;
#X connect 21 0 13 1;
#X connect 21 0 11 1;
#X connect 22 0 21 0;
#X connect 24 0 10 0;
#X connect 24 0 11 0;
#X connect 25 0 26 0;
#X connect 26 0 4 0;
#X connect 27 0 20 0;
#X connect 28 0 20 0;
#X connect 29 0 23 0;
#X connect 30 0 23 1;
#X connect 31 0 30 1;
#X connect 31 0 29 1;
#X restore 19 220 pd mosquito;
#N canvas 0 0 632 558 rattler 0;
#X obj 121 158 sig~ 1;
#X obj 121 190 /~;
#X obj 174 167 +~ 1;
#X obj 175 141 *~;
#X obj 230 167 noise~;
#X obj 121 215 *~;
#X obj 121 415 dac~;
#X obj 121 309 *~;
#X obj 230 213 *~ 0.1;
#X obj 317 186 clip~ 0 1;
#X obj 121 342 *~ 0.2;
#X obj 316 163 *~ 3;
#X obj 317 211 *~ 1;
#X obj 175 112 *~ 6;
#X obj 317 140 osc~ 0.5;
#X obj 175 90 osc~ 10;
#X obj 230 189 bp~ 7000 13;
#X obj 121 241 bp~ 6000 16;
#X obj 122 390 *~;
#X obj 138 365 inlet~;
#X connect 0 0 1 0;
#X connect 1 0 5 0;
#X connect 2 0 1 1;
#X connect 3 0 2 0;
#X connect 4 0 16 0;
#X connect 5 0 17 0;
#X connect 7 0 10 0;
#X connect 8 0 17 0;
#X connect 9 0 12 0;
#X connect 10 0 18 0;
#X connect 11 0 9 0;
#X connect 12 0 7 1;
#X connect 13 0 3 0;
#X connect 13 0 3 1;
#X connect 14 0 11 0;
#X connect 15 0 13 0;
#X connect 16 0 5 1;
#X connect 16 0 8 0;
#X connect 17 0 7 0;
#X connect 18 0 6 1;
#X connect 18 0 6 0;
#X connect 19 0 18 1;
#X restore 188 126 pd rattler;
#N canvas 0 0 519 413 critters2 0;
#X obj 93 226 *~;
#X obj 94 188 *~;
#X obj 94 152 *~;
#X obj 126 46 unpack 1 2 3 4;
#X obj 92 375 dac~;
#X obj 92 253 hip~ 20;
#X obj 95 107 cos~;
#X obj 158 106 cos~;
#X obj 233 105 cos~;
#X obj 303 105 cos~;
#X obj 303 75 phasor~;
#X obj 234 75 phasor~;
#X obj 158 76 phasor~;
#X obj 96 76 phasor~;
#X obj 126 -1 loadbang;
#X text 129 296 night critters \, ajf2005;
#X obj 108 270 osc~ 0.01;
#X obj 91 295 *~;
#X obj 91 317 *~ 0.007;
#X msg 126 23 2012 4 20 2;
#X obj 92 345 *~;
#X obj 158 316 inlet~;
#X connect 0 0 5 0;
#X connect 1 0 0 0;
#X connect 2 0 1 0;
#X connect 3 0 13 0;
#X connect 3 1 12 0;
#X connect 3 2 11 0;
#X connect 3 3 10 0;
#X connect 5 0 17 0;
#X connect 6 0 2 0;
#X connect 7 0 2 1;
#X connect 8 0 1 1;
#X connect 9 0 0 1;
#X connect 10 0 9 0;
#X connect 11 0 8 0;
#X connect 12 0 7 0;
#X connect 13 0 6 0;
#X connect 14 0 19 0;
#X connect 16 0 17 1;
#X connect 17 0 18 0;
#X connect 18 0 20 0;
#X connect 19 0 3 0;
#X connect 20 0 4 0;
#X connect 20 0 4 1;
#X connect 21 0 20 1;
#X restore 14 26 pd critters2;
#N canvas 0 0 537 758 frog 0;
#X obj 95 461 *~ 1;
#X obj 105 564 *~ 0.45;
#X obj 208 153 vline~;
#X obj 148 339 wrap~;
#X obj 148 390 *~;
#X obj 97 413 sig~ 1;
#X obj 96 440 /~;
#X obj 148 416 +~ 1;
#X obj 148 318 -~ 1;
#X obj 12 520 vcf~ 800 40;
#X obj 96 521 vcf~ 1 40;
#X obj 168 520 vcf~ 2600 20;
#X obj 201 445 *~ 120;
#X obj 157 446 *~ 60;
#X obj 254 445 *~ 340;
#X msg 208 132 1 \, 0 400;
#X msg 286 53 80;
#X msg 321 53 60;
#X msg 359 53 40;
#X obj 147 272 *~;
#X obj 96 590 hip~ 10;
#X obj 299 32 loadbang;
#X obj 208 62 metro 1000;
#X obj 208 110 sel 0;
#X obj 95 678 dac~;
#X obj 185 181 sig~ 1;
#X obj 184 204 -~;
#X obj 149 364 *~ 42;
#X obj 148 244 *~ 2.3;
#X obj 156 470 +~ 600;
#X obj 201 470 +~ 1500;
#X obj 254 470 +~ 2300;
#X obj 148 295 *~ 4;
#X obj 202 419 *~ 0.35;
#X obj 208 85 random 7;
#X obj 96 652 *~;
#X obj 155 616 inlet~;
#X obj 95 615 *~ 0.1;
#X connect 0 0 9 0;
#X connect 0 0 10 0;
#X connect 0 0 11 0;
#X connect 1 0 20 0;
#X connect 2 0 26 1;
#X connect 3 0 27 0;
#X connect 4 0 7 0;
#X connect 5 0 6 0;
#X connect 6 0 0 0;
#X connect 7 0 6 1;
#X connect 8 0 3 0;
#X connect 9 0 1 0;
#X connect 10 0 20 0;
#X connect 11 0 1 0;
#X connect 12 0 30 0;
#X connect 13 0 29 0;
#X connect 14 0 31 0;
#X connect 15 0 2 0;
#X connect 16 0 9 2;
#X connect 17 0 10 2;
#X connect 18 0 11 2;
#X connect 19 0 32 0;
#X connect 19 0 33 0;
#X connect 20 0 37 0;
#X connect 21 0 18 0;
#X connect 21 0 17 0;
#X connect 21 0 16 0;
#X connect 21 0 22 0;
#X connect 22 0 34 0;
#X connect 23 0 15 0;
#X connect 25 0 26 0;
#X connect 26 0 28 0;
#X connect 27 0 4 0;
#X connect 27 0 4 1;
#X connect 28 0 19 0;
#X connect 28 0 19 1;
#X connect 29 0 9 1;
#X connect 30 0 10 1;
#X connect 31 0 11 1;
#X connect 32 0 8 0;
#X connect 33 0 12 0;
#X connect 33 0 13 0;
#X connect 33 0 14 0;
#X connect 34 0 23 0;
#X connect 35 0 24 1;
#X connect 35 0 24 0;
#X connect 36 0 35 1;
#X connect 37 0 35 0;
#X restore 92 170 pd frog;
#N canvas 0 0 543 733 frog2 0;
#X obj 95 461 *~ 1;
#X obj 105 564 *~ 0.45;
#X obj 208 153 vline~;
#X obj 148 339 wrap~;
#X obj 148 390 *~;
#X obj 97 413 sig~ 1;
#X obj 96 440 /~;
#X obj 148 416 +~ 1;
#X obj 148 318 -~ 1;
#X obj 149 364 *~ 122;
#X obj 12 520 vcf~ 800 40;
#X obj 96 521 vcf~ 1 40;
#X obj 168 520 vcf~ 2600 20;
#X obj 201 393 *~ -1;
#X obj 262 304 sig~ 1;
#X obj 261 327 -~;
#X obj 261 361 min~ 0.5;
#X obj 201 361 max~ 0.9;
#X obj 147 272 *~;
#X obj 148 220 *~ -1;
#X obj 208 188 min~ 0.5;
#X obj 147 189 max~ 0.5;
#X obj 96 590 hip~ 10;
#X obj 299 32 loadbang;
#X obj 208 110 sel 0;
#X obj 95 657 dac~;
#X obj 156 470 +~ 900;
#X obj 201 470 +~ 1800;
#X obj 254 470 +~ 2900;
#X obj 254 445 *~ 240;
#X obj 201 445 *~ 90;
#X obj 157 446 *~ 40;
#X obj 200 417 *~ 3;
#X obj 148 244 *~ 3;
#X msg 208 132 1 \, 0 200;
#X obj 148 295 *~ 2;
#X msg 359 53 30;
#X msg 321 53 40;
#X msg 286 53 50;
#X obj 208 62 metro 700;
#X obj 208 85 random 7;
#X obj 96 634 *~;
#X obj 156 612 inlet~;
#X obj 96 611 *~ 0.2;
#X connect 0 0 10 0;
#X connect 0 0 11 0;
#X connect 0 0 12 0;
#X connect 1 0 22 0;
#X connect 2 0 15 1;
#X connect 2 0 21 0;
#X connect 2 0 20 0;
#X connect 3 0 9 0;
#X connect 4 0 7 0;
#X connect 5 0 6 0;
#X connect 6 0 0 0;
#X connect 7 0 6 1;
#X connect 8 0 3 0;
#X connect 9 0 4 0;
#X connect 9 0 4 1;
#X connect 10 0 1 0;
#X connect 11 0 22 0;
#X connect 12 0 1 0;
#X connect 13 0 32 0;
#X connect 14 0 15 0;
#X connect 15 0 16 0;
#X connect 15 0 17 0;
#X connect 16 0 32 0;
#X connect 17 0 13 0;
#X connect 18 0 35 0;
#X connect 19 0 33 0;
#X connect 20 0 33 0;
#X connect 21 0 19 0;
#X connect 22 0 43 0;
#X connect 23 0 36 0;
#X connect 23 0 37 0;
#X connect 23 0 38 0;
#X connect 23 0 39 0;
#X connect 24 0 34 0;
#X connect 26 0 10 1;
#X connect 27 0 11 1;
#X connect 28 0 12 1;
#X connect 29 0 28 0;
#X connect 30 0 27 0;
#X connect 31 0 26 0;
#X connect 32 0 29 0;
#X connect 32 0 30 0;
#X connect 32 0 31 0;
#X connect 33 0 18 0;
#X connect 33 0 18 1;
#X connect 34 0 2 0;
#X connect 35 0 8 0;
#X connect 36 0 12 2;
#X connect 37 0 11 2;
#X connect 38 0 10 2;
#X connect 39 0 40 0;
#X connect 40 0 24 0;
#X connect 41 0 25 1;
#X connect 41 0 25 0;
#X connect 42 0 41 1;
#X connect 43 0 41 0;
#X restore 19 171 pd frog2;
#N canvas 0 0 532 508 frog 0;
#X obj 111 124 noise~;
#X obj 112 159 *~;
#X obj 111 471 dac~;
#X obj 161 75 *~;
#X obj 161 100 *~;
#X obj 162 123 *~;
#X obj 112 286 *~;
#X obj 113 235 vcf~ 500 1;
#X obj 203 139 +~ 450;
#X obj 111 312 *~;
#X obj 162 261 osc~ 12;
#X obj 222 194 loadbang;
#X obj 161 51 osc~ 0.4444;
#X msg 222 216 80;
#X obj 112 208 bp~ 510 220;
#X obj 111 182 bp~ 450 220;
#X obj 205 117 *~ 70;
#X obj 113 262 *~ 60;
#X obj 111 444 *~;
#X obj 128 419 inlet~;
#X obj 125 368 lop~ 1;
#X obj 369 158 bng 15 250 50 0 empty empty empty 0 -6 0 8 -262144 -1
-1;
#X obj 302 231 sel 0 1;
#X msg 300 253 0;
#X msg 335 253 1;
#X obj 301 208 random 4;
#X obj 110 391 *~;
#X obj 301 183 metro 1300;
#X obj 110 336 *~ 0.4;
#X connect 0 0 1 0;
#X connect 1 0 15 0;
#X connect 3 0 4 0;
#X connect 3 0 4 1;
#X connect 3 0 6 1;
#X connect 3 0 16 0;
#X connect 4 0 5 0;
#X connect 4 0 5 1;
#X connect 5 0 1 1;
#X connect 6 0 9 0;
#X connect 7 0 17 0;
#X connect 8 0 7 1;
#X connect 9 0 28 0;
#X connect 10 0 9 1;
#X connect 11 0 13 0;
#X connect 11 0 27 0;
#X connect 12 0 3 0;
#X connect 12 0 3 1;
#X connect 13 0 7 2;
#X connect 14 0 7 0;
#X connect 15 0 14 0;
#X connect 16 0 8 0;
#X connect 17 0 6 0;
#X connect 18 0 2 1;
#X connect 18 0 2 0;
#X connect 19 0 18 1;
#X connect 20 0 26 1;
#X connect 21 0 27 0;
#X connect 22 0 23 0;
#X connect 22 1 24 0;
#X connect 23 0 20 0;
#X connect 24 0 20 0;
#X connect 25 0 22 0;
#X connect 26 0 18 0;
#X connect 27 0 25 0;
#X connect 28 0 26 0;
#X restore 150 169 pd frog reson;
#N canvas 0 0 537 503 cricket 0;
#X obj 141 220 cos~;
#X obj 156 140 cos~;
#X obj 141 197 +~;
#X obj 104 164 wrap~;
#X obj 119 418 dac~;
#X obj 119 344 *~ 0.07;
#X obj 156 168 *~ 0.2;
#X obj 140 247 *~;
#X obj 156 119 wrap~;
#X obj 119 281 *~;
#X obj 66 162 cos~;
#X obj 129 57 phasor~ 18;
#X obj 104 140 *~ 250;
#X obj 156 95 *~ 2.1;
#X obj 264 179 *~;
#X obj 212 104 noise~;
#X obj 212 126 lop~ 5;
#X obj 197 224 *~;
#X obj 198 200 +~ 0.6;
#X obj 211 157 *~ 12;
#X obj 264 131 phasor~ -2;
#X obj 261 -9 noise~;
#X obj 262 13 lop~ 0.2;
#X obj 263 35 lop~ 0.2;
#X obj 263 82 clip~ 0 1;
#X obj 263 58 *~ 1e+09;
#X obj 119 311 *~;
#X obj 263 108 *~ -2;
#X obj 264 154 lop~ 8;
#X obj 119 393 *~;
#X obj 135 368 inlet~;
#X connect 0 0 7 0;
#X connect 1 0 6 0;
#X connect 2 0 0 0;
#X connect 3 0 2 0;
#X connect 5 0 29 0;
#X connect 6 0 2 1;
#X connect 7 0 9 1;
#X connect 8 0 1 0;
#X connect 9 0 26 0;
#X connect 10 0 9 0;
#X connect 11 0 12 0;
#X connect 11 0 13 0;
#X connect 11 0 10 0;
#X connect 12 0 3 0;
#X connect 13 0 8 0;
#X connect 14 0 17 1;
#X connect 15 0 16 0;
#X connect 16 0 19 0;
#X connect 16 0 28 0;
#X connect 17 0 7 1;
#X connect 18 0 17 0;
#X connect 19 0 18 0;
#X connect 20 0 28 0;
#X connect 21 0 22 0;
#X connect 22 0 23 0;
#X connect 23 0 25 0;
#X connect 24 0 26 1;
#X connect 24 0 27 0;
#X connect 25 0 24 0;
#X connect 26 0 5 0;
#X connect 27 0 20 0;
#X connect 28 0 14 1;
#X connect 28 0 14 0;
#X connect 29 0 4 1;
#X connect 29 0 4 0;
#X connect 30 0 29 1;
#X restore 15 72 pd cricket;
#N canvas 0 0 531 585 cricket 0;
#X obj 141 220 cos~;
#X obj 156 140 cos~;
#X obj 141 197 +~;
#X obj 104 164 wrap~;
#X obj 115 420 dac~;
#X obj 119 344 *~ 0.07;
#X obj 156 168 *~ 0.2;
#X obj 140 247 *~;
#X obj 156 119 wrap~;
#X obj 119 281 *~;
#X obj 66 162 cos~;
#X obj 104 140 *~ 250;
#X obj 156 95 *~ 2.1;
#X obj 264 179 *~;
#X obj 212 104 noise~;
#X obj 212 126 lop~ 5;
#X obj 197 224 *~;
#X obj 198 200 +~ 0.6;
#X obj 211 157 *~ 12;
#X obj 264 131 phasor~ -2;
#X obj 261 -9 noise~;
#X obj 262 13 lop~ 0.2;
#X obj 263 35 lop~ 0.2;
#X obj 263 82 clip~ 0 1;
#X obj 263 58 *~ 1e+09;
#X obj 119 311 *~;
#X obj 264 154 lop~ 8;
#X obj 129 57 phasor~ 21;
#X obj 263 108 *~ -4;
#X obj 119 392 *~;
#X obj 135 367 inlet~;
#X connect 0 0 7 0;
#X connect 1 0 6 0;
#X connect 2 0 0 0;
#X connect 3 0 2 0;
#X connect 5 0 29 0;
#X connect 6 0 2 1;
#X connect 7 0 9 1;
#X connect 8 0 1 0;
#X connect 9 0 25 0;
#X connect 10 0 9 0;
#X connect 11 0 3 0;
#X connect 12 0 8 0;
#X connect 13 0 16 1;
#X connect 14 0 15 0;
#X connect 15 0 18 0;
#X connect 15 0 26 0;
#X connect 16 0 7 1;
#X connect 17 0 16 0;
#X connect 18 0 17 0;
#X connect 19 0 26 0;
#X connect 20 0 21 0;
#X connect 21 0 22 0;
#X connect 22 0 24 0;
#X connect 23 0 25 1;
#X connect 23 0 28 0;
#X connect 24 0 23 0;
#X connect 25 0 5 0;
#X connect 26 0 13 1;
#X connect 26 0 13 0;
#X connect 27 0 11 0;
#X connect 27 0 12 0;
#X connect 27 0 10 0;
#X connect 28 0 19 0;
#X connect 29 0 4 0;
#X connect 29 0 4 1;
#X connect 30 0 29 1;
#X restore 93 72 pd cricket;
#N canvas 0 0 559 558 cricket 0;
#X obj 141 220 cos~;
#X obj 156 140 cos~;
#X obj 141 197 +~;
#X obj 104 164 wrap~;
#X obj 120 426 dac~;
#X obj 119 344 *~ 0.07;
#X obj 156 168 *~ 0.2;
#X obj 140 247 *~;
#X obj 156 119 wrap~;
#X obj 119 281 *~;
#X obj 66 162 cos~;
#X obj 104 140 *~ 250;
#X obj 156 95 *~ 2.1;
#X obj 264 179 *~;
#X obj 212 104 noise~;
#X obj 212 126 lop~ 5;
#X obj 197 224 *~;
#X obj 198 200 +~ 0.6;
#X obj 211 157 *~ 12;
#X obj 264 131 phasor~ -2;
#X obj 261 -9 noise~;
#X obj 263 82 clip~ 0 1;
#X obj 263 58 *~ 1e+09;
#X obj 119 311 *~;
#X obj 264 154 lop~ 8;
#X obj 129 57 phasor~ 12;
#X obj 263 108 *~ -3;
#X obj 263 35 lop~ 0.1;
#X obj 262 13 lop~ 0.1;
#X obj 120 393 *~;
#X obj 136 368 inlet~;
#X connect 0 0 7 0;
#X connect 1 0 6 0;
#X connect 2 0 0 0;
#X connect 3 0 2 0;
#X connect 5 0 29 0;
#X connect 6 0 2 1;
#X connect 7 0 9 1;
#X connect 8 0 1 0;
#X connect 9 0 23 0;
#X connect 10 0 9 0;
#X connect 11 0 3 0;
#X connect 12 0 8 0;
#X connect 13 0 16 1;
#X connect 14 0 15 0;
#X connect 15 0 18 0;
#X connect 15 0 24 0;
#X connect 16 0 7 1;
#X connect 17 0 16 0;
#X connect 18 0 17 0;
#X connect 19 0 24 0;
#X connect 20 0 28 0;
#X connect 21 0 23 1;
#X connect 21 0 26 0;
#X connect 22 0 21 0;
#X connect 23 0 5 0;
#X connect 24 0 13 1;
#X connect 24 0 13 0;
#X connect 25 0 11 0;
#X connect 25 0 12 0;
#X connect 25 0 10 0;
#X connect 26 0 19 0;
#X connect 27 0 22 0;
#X connect 28 0 27 0;
#X connect 29 0 4 1;
#X connect 29 0 4 0;
#X connect 30 0 29 1;
#X restore 170 72 pd cricket;
#N canvas 0 0 586 454 cricket 0;
#X obj 216 113 osc~ 3000;
#X obj 152 346 dac~;
#X obj 151 119 *~;
#X obj 152 42 osc~ 3.6;
#X obj 151 147 *~;
#X obj 152 69 +~ 1;
#X obj 152 93 *~ 0.5;
#X obj 151 173 *~;
#X obj 217 88 +~ 3000;
#X obj 216 63 *~ 300;
#X obj 151 203 *~;
#X obj 217 40 osc~ 120;
#X obj 296 25 noise~;
#X obj 298 116 clip~ 0 1;
#X obj 298 92 *~ 1e+09;
#X obj 298 69 lop~ 0.1;
#X obj 297 47 lop~ 0.1;
#X obj 151 231 *~;
#X obj 164 315 *~;
#X obj 180 290 inlet~;
#X obj 152 265 *~ 0.05;
#X connect 0 0 10 1;
#X connect 2 0 4 0;
#X connect 2 0 4 1;
#X connect 3 0 5 0;
#X connect 4 0 7 0;
#X connect 4 0 7 1;
#X connect 5 0 6 0;
#X connect 6 0 2 0;
#X connect 6 0 2 1;
#X connect 7 0 10 0;
#X connect 8 0 0 0;
#X connect 9 0 8 0;
#X connect 10 0 17 0;
#X connect 11 0 9 0;
#X connect 12 0 16 0;
#X connect 13 0 17 1;
#X connect 14 0 13 0;
#X connect 15 0 14 0;
#X connect 16 0 15 0;
#X connect 17 0 20 0;
#X connect 18 0 1 0;
#X connect 18 0 1 1;
#X connect 19 0 18 1;
#X connect 20 0 18 0;
#X restore 437 72 pd cricket japanese;
#N canvas 0 0 724 521 bullcricket 0;
#X obj 118 47 *~ 4;
#X obj 73 86 clip~ 0 1;
#X obj 153 87 clip~ 1 2;
#X obj 153 109 -~ 1;
#X obj 152 134 wrap~;
#X obj 136 167 +~;
#X obj 222 492 dac~;
#X obj 262 133 cos~;
#X obj 216 131 cos~;
#X obj 222 304 *~;
#X obj 221 161 *~;
#X obj 118 24 phasor~ 1;
#X obj 136 243 cos~;
#X obj 136 219 -~ 0.75;
#X obj 136 197 *~ 0.5;
#X obj 237 190 +~;
#X obj 240 85 phasor~ 20;
#X obj 261 110 *~ 900;
#X obj 322 208 clip~ 0 1;
#X obj 322 184 *~ 1e+09;
#X obj 293 261 *~;
#X obj 302 152 osc~ 0.057;
#X obj 378 152 osc~ 0.027;
#X obj 237 212 hip~ 2000;
#X obj 223 454 *~;
#X obj 239 429 inlet~;
#X obj 223 328 hip~ 30;
#X obj 222 361 lop~ 3000;
#X obj 222 407 *~ 0.4;
#X connect 0 0 1 0;
#X connect 0 0 2 0;
#X connect 1 0 5 0;
#X connect 2 0 3 0;
#X connect 3 0 4 0;
#X connect 4 0 5 1;
#X connect 5 0 14 0;
#X connect 7 0 10 1;
#X connect 7 0 15 1;
#X connect 8 0 10 0;
#X connect 8 0 15 1;
#X connect 9 0 26 0;
#X connect 10 0 15 0;
#X connect 11 0 0 0;
#X connect 12 0 9 0;
#X connect 13 0 12 0;
#X connect 14 0 13 0;
#X connect 15 0 23 0;
#X connect 16 0 8 0;
#X connect 16 0 17 0;
#X connect 17 0 7 0;
#X connect 18 0 20 1;
#X connect 19 0 18 0;
#X connect 20 0 9 1;
#X connect 21 0 19 0;
#X connect 22 0 19 0;
#X connect 23 0 20 0;
#X connect 24 0 6 1;
#X connect 24 0 6 0;
#X connect 25 0 24 1;
#X connect 26 0 27 0;
#X connect 27 0 28 0;
#X connect 28 0 24 0;
#X restore 328 72 pd bullcricket;
#N canvas 0 0 494 370 critters 0;
#X obj 93 226 *~;
#X obj 94 188 *~;
#X obj 94 152 *~;
#X obj 126 46 unpack 1 2 3 4;
#X obj 90 415 dac~;
#X obj 92 253 hip~ 20;
#X obj 95 107 cos~;
#X obj 158 106 cos~;
#X obj 233 105 cos~;
#X obj 303 105 cos~;
#X obj 303 75 phasor~;
#X obj 234 75 phasor~;
#X obj 158 76 phasor~;
#X obj 96 76 phasor~;
#X obj 126 -1 loadbang;
#X text 129 296 night critters \, ajf2005;
#X msg 126 23 2134 4.279 20.4 15.5;
#X obj 108 270 osc~ 0.01;
#X obj 91 295 *~;
#X obj 91 317 *~ 0.007;
#X obj 90 382 *~;
#X obj 106 357 inlet~;
#X connect 0 0 5 0;
#X connect 1 0 0 0;
#X connect 2 0 1 0;
#X connect 3 0 13 0;
#X connect 3 1 12 0;
#X connect 3 2 11 0;
#X connect 3 3 10 0;
#X connect 5 0 18 0;
#X connect 6 0 2 0;
#X connect 7 0 2 1;
#X connect 8 0 1 1;
#X connect 9 0 0 1;
#X connect 10 0 9 0;
#X connect 11 0 8 0;
#X connect 12 0 7 0;
#X connect 13 0 6 0;
#X connect 14 0 16 0;
#X connect 16 0 3 0;
#X connect 17 0 18 1;
#X connect 18 0 19 0;
#X connect 19 0 20 0;
#X connect 20 0 4 0;
#X connect 20 0 4 1;
#X connect 21 0 20 1;
#X restore 107 24 pd critters;
#N canvas 0 0 772 704 bee 0;
#X obj 157 329 phasor~ 600;
#X obj 247 329 phasor~ 600;
#X obj 248 304 +~;
#X obj 264 276 osc~ 0.2;
#X obj 226 234 +~;
#X obj 289 98 noise~;
#X obj 158 358 >~ 0.97;
#X obj 248 358 >~ 0.97;
#X obj 289 120 lop~ 1;
#X obj 289 142 *~ 2000;
#X obj 214 554 *~;
#X obj 263 555 *~;
#X obj 237 488 sig~ 1;
#X obj 236 513 -~;
#X obj 159 384 bp~ 6000 12;
#X obj 250 387 bp~ 6000 12;
#X obj 226 143 lop~ 0.2;
#X obj 226 167 *~ 5000;
#X obj 341 256 noise~;
#X obj 343 347 clip~ 0 1;
#X obj 343 323 *~ 1e+09;
#X obj 342 278 lop~ 0.2;
#X obj 343 300 lop~ 0.2;
#X obj 196 430 *~;
#X obj 226 189 +~ 300;
#X obj 314 203 lop~ 0.5;
#X obj 303 166 *~ 0.2;
#X obj 229 625 dac~;
#X obj 194 456 *~ 0.02;
#X obj 265 592 *~;
#X obj 297 556 inlet~;
#X obj 213 595 *~;
#X connect 0 0 6 0;
#X connect 1 0 7 0;
#X connect 2 0 1 0;
#X connect 3 0 2 1;
#X connect 4 0 0 0;
#X connect 4 0 2 0;
#X connect 5 0 8 0;
#X connect 5 0 16 0;
#X connect 6 0 14 0;
#X connect 7 0 15 0;
#X connect 8 0 9 0;
#X connect 9 0 4 1;
#X connect 9 0 3 0;
#X connect 9 0 26 0;
#X connect 10 0 31 0;
#X connect 11 0 29 0;
#X connect 12 0 13 0;
#X connect 13 0 10 1;
#X connect 14 0 23 0;
#X connect 15 0 23 0;
#X connect 16 0 17 0;
#X connect 17 0 24 0;
#X connect 18 0 21 0;
#X connect 19 0 23 1;
#X connect 20 0 19 0;
#X connect 21 0 22 0;
#X connect 22 0 20 0;
#X connect 23 0 28 0;
#X connect 24 0 4 0;
#X connect 25 0 13 1;
#X connect 25 0 11 1;
#X connect 26 0 25 0;
#X connect 28 0 10 0;
#X connect 28 0 11 0;
#X connect 29 0 27 1;
#X connect 30 0 29 1;
#X connect 30 0 31 1;
#X connect 31 0 27 0;
#X restore 157 221 pd bee;
#N canvas 0 0 607 636 fly 0;
#X obj 112 547 dac~;
#X obj 110 164 +~ 284;
#X obj 110 185 phasor~ 640;
#X obj 96 395 /~;
#X obj 112 368 +~ 1;
#X obj 113 344 *~;
#X obj 66 344 sig~ 1;
#X obj 110 77 noise~;
#X obj 110 98 lop~ 2;
#X obj 110 116 lop~ 2;
#X obj 110 136 *~ 2000;
#X obj 111 208 -~ 0.5;
#X obj 111 240 *~;
#X obj 111 264 *~ -4;
#X obj 111 293 +~ 1;
#X obj 172 113 * 4;
#X obj 222 155 / 500;
#X obj 105 422 *~;
#X obj 174 83 line;
#X msg 214 54 280 60;
#X obj 112 316 *~ 16;
#X obj 107 443 bp~ 2000 0.3;
#X msg 169 55 0 20;
#X obj 173 25 sel 0 1;
#X obj 264 -26 loadbang;
#X obj 127 -15 bng 15 250 50 0 empty empty empty 0 -6 0 8 -262144 -1
-1;
#X obj 174 -24 metro 1000;
#X obj 174 -1 random 3;
#X obj 112 517 *~;
#X obj 128 492 inlet~;
#X obj 108 470 *~ 0.007;
#X connect 1 0 2 0;
#X connect 2 0 11 0;
#X connect 3 0 17 0;
#X connect 4 0 3 1;
#X connect 5 0 4 0;
#X connect 6 0 3 0;
#X connect 7 0 8 0;
#X connect 8 0 9 0;
#X connect 9 0 10 0;
#X connect 10 0 1 0;
#X connect 11 0 12 0;
#X connect 11 0 12 1;
#X connect 12 0 13 0;
#X connect 13 0 14 0;
#X connect 14 0 20 0;
#X connect 15 0 10 1;
#X connect 16 0 17 1;
#X connect 17 0 21 0;
#X connect 18 0 16 0;
#X connect 18 0 15 0;
#X connect 18 0 1 1;
#X connect 19 0 18 0;
#X connect 20 0 5 0;
#X connect 20 0 5 1;
#X connect 21 0 30 0;
#X connect 22 0 18 0;
#X connect 23 0 22 0;
#X connect 23 1 19 0;
#X connect 24 0 26 0;
#X connect 25 0 26 0;
#X connect 26 0 27 0;
#X connect 27 0 23 0;
#X connect 28 0 0 0;
#X connect 28 0 0 1;
#X connect 29 0 28 1;
#X connect 30 0 28 0;
#X restore 104 221 pd fly;
#N canvas 0 0 682 607 circada1 0;
#X obj 17 7 noise~;
#X obj 98 468 dac~;
#X obj 17 75 hip~ 5000;
#X obj 17 96 hip~ 5000;
#X obj 17 117 lop~ 8000;
#X obj 17 138 lop~ 8000;
#X obj 99 216 *~;
#X obj 187 216 *~;
#X obj 99 317 *~;
#X obj 116 271 +~;
#X obj 99 337 bp~ 6000 7;
#X obj 99 358 hip~ 4000;
#X obj 99 240 *~;
#X obj 99 168 *~ -90;
#X obj 99 144 +~ 1;
#X obj 143 96 lop~ 2;
#X obj 143 72 lop~ 2;
#X obj 99 120 *~ 30;
#X obj 187 120 *~ 10;
#X obj 187 144 +~ 1;
#X obj 187 168 *~ -20;
#X obj 99 192 phasor~;
#X obj 187 192 phasor~;
#X obj 116 295 lop~ 70;
#X obj 307 103 metro 3000;
#X obj 308 78 loadbang;
#X obj 375 78 bng 15 250 50 0 empty empty empty 0 -6 0 8 -262144 -1
-1;
#X obj 308 151 sel 0 1;
#X obj 99 402 *~;
#X obj 157 379 lop~ 1;
#X msg 279 198 0;
#X msg 314 198 1;
#X obj 307 128 random 3;
#X obj 98 437 *~;
#X obj 33 385 inlet~;
#X obj 99 380 *~ 0.1;
#X connect 0 0 2 0;
#X connect 0 0 16 0;
#X connect 2 0 3 0;
#X connect 3 0 4 0;
#X connect 4 0 5 0;
#X connect 5 0 8 0;
#X connect 6 0 12 0;
#X connect 6 0 12 1;
#X connect 7 0 9 1;
#X connect 8 0 10 0;
#X connect 9 0 23 0;
#X connect 10 0 11 0;
#X connect 11 0 35 0;
#X connect 12 0 9 0;
#X connect 13 0 21 0;
#X connect 14 0 13 0;
#X connect 15 0 17 0;
#X connect 15 0 18 0;
#X connect 16 0 15 0;
#X connect 17 0 14 0;
#X connect 18 0 19 0;
#X connect 19 0 20 0;
#X connect 20 0 22 0;
#X connect 21 0 6 0;
#X connect 21 0 6 1;
#X connect 22 0 7 0;
#X connect 22 0 7 1;
#X connect 23 0 8 1;
#X connect 24 0 32 0;
#X connect 25 0 24 0;
#X connect 26 0 24 0;
#X connect 27 0 30 0;
#X connect 27 1 31 0;
#X connect 28 0 33 1;
#X connect 29 0 28 1;
#X connect 30 0 29 0;
#X connect 31 0 29 0;
#X connect 32 0 27 0;
#X connect 33 0 1 0;
#X connect 33 0 1 1;
#X connect 34 0 33 0;
#X connect 35 0 28 0;
#X restore 102 127 pd circada1;
#X obj 19 199 tgl 15 1 empty empty empty 0 -6 0 8 -262144 -1 -1 0 1
;
#X obj 104 199 tgl 15 1 empty empty empty 0 -6 0 8 -262144 -1 -1 0
1;
#X obj 157 200 tgl 15 1 empty empty empty 0 -6 0 8 -262144 -1 -1 0
1;
#X obj 329 51 tgl 15 1 empty empty empty 0 -6 0 8 -262144 -1 -1 0 1
;
#X obj 437 51 tgl 15 1 empty empty empty 0 -6 0 8 -262144 -1 -1 0 1
;
#X obj 268 107 tgl 15 1 empty empty empty 0 -6 0 8 -262144 -1 -1 0
1;
#X obj 16 52 tgl 15 1 empty empty empty 0 -6 0 8 -262144 -1 -1 0 1
;
#X obj 93 51 tgl 15 1 empty empty empty 0 -6 0 8 -262144 -1 -1 0 1
;
#X obj 172 51 tgl 15 1 empty empty empty 0 -6 0 8 -262144 -1 -1 0 1
;
#X obj 188 107 tgl 15 1 empty empty empty 0 -6 0 8 -262144 -1 -1 0
1;
#X obj 249 53 tgl 15 1 empty empty empty 0 -6 0 8 -262144 -1 -1 0 1
;
#X obj 151 150 tgl 15 1 empty empty empty 0 -6 0 8 -262144 -1 -1 0
1;
#X obj 13 6 tgl 15 1 empty empty empty 0 -6 0 8 -262144 -1 -1 0 1;
#X obj 107 6 tgl 15 1 empty empty empty 0 -6 0 8 -262144 -1 -1 0 1
;
#X obj 92 150 tgl 15 1 empty empty empty 0 -6 0 8 -262144 -1 -1 0 1
;
#X obj 18 152 tgl 15 1 empty empty empty 0 -6 0 8 -262144 -1 -1 0 1
;
#X obj 102 107 tgl 15 1 empty empty empty 0 -6 0 8 -262144 -1 -1 0
1;
#N canvas 0 0 548 524 circada2 0;
#X obj 138 450 dac~;
#X obj 187 27 noise~;
#X obj 139 106 +~ 1;
#X obj 224 125 +~ 1;
#X obj 224 83 lop~ 5;
#X obj 224 62 lop~ 5;
#X obj 139 169 hip~ 12000;
#X obj 139 190 hip~ 12000;
#X obj 139 148 phasor~;
#X obj 139 127 *~ -120;
#X obj 224 167 osc~;
#X obj 224 104 *~ 0;
#X obj 224 188 clip~ 0 1;
#X obj 150 223 bp~ 5000 30;
#X obj 234 223 bp~ 6000 30;
#X obj 223 248 bp~ 8000 30;
#X obj 139 248 bp~ 7000 30;
#X obj 138 309 *~;
#X obj 138 330 bp~ 6000 5;
#X obj 224 146 *~ -12;
#X obj 139 64 bp~ 120 40;
#X obj 139 85 *~ 190;
#X obj 138 406 *~;
#X obj 154 384 inlet~;
#X obj 138 359 *~;
#X obj 222 329 lop~ 1;
#X obj 381 54 loadbang;
#X obj 448 54 bng 15 250 50 0 empty empty empty 0 -6 0 8 -262144 -1
-1;
#X obj 381 127 sel 0 1;
#X msg 352 174 0;
#X msg 387 174 1;
#X obj 380 104 random 4;
#X obj 380 79 metro 1000;
#X obj 138 288 *~ 0.7;
#X connect 1 0 5 0;
#X connect 1 0 20 0;
#X connect 2 0 9 0;
#X connect 3 0 19 0;
#X connect 4 0 11 0;
#X connect 5 0 4 0;
#X connect 6 0 7 0;
#X connect 7 0 13 0;
#X connect 7 0 14 0;
#X connect 7 0 15 0;
#X connect 7 0 16 0;
#X connect 8 0 6 0;
#X connect 9 0 8 0;
#X connect 10 0 12 0;
#X connect 11 0 3 0;
#X connect 12 0 17 1;
#X connect 13 0 33 0;
#X connect 14 0 33 0;
#X connect 15 0 33 0;
#X connect 16 0 33 0;
#X connect 17 0 18 0;
#X connect 18 0 24 0;
#X connect 19 0 10 0;
#X connect 20 0 21 0;
#X connect 21 0 2 0;
#X connect 22 0 0 0;
#X connect 22 0 0 1;
#X connect 23 0 22 1;
#X connect 24 0 22 0;
#X connect 25 0 24 1;
#X connect 26 0 32 0;
#X connect 27 0 32 0;
#X connect 28 0 29 0;
#X connect 28 1 30 0;
#X connect 29 0 25 0;
#X connect 30 0 25 0;
#X connect 31 0 28 0;
#X connect 32 0 31 0;
#X connect 33 0 17 0;
#X restore 18 128 pd circada2;
#X obj 19 108 tgl 15 1 empty empty empty 0 -6 0 8 -262144 -1 -1 0 1
;
#N canvas 0 0 590 525 flutter 0;
#X obj 121 158 sig~ 1;
#X obj 121 190 /~;
#X obj 174 167 +~ 1;
#X obj 175 141 *~;
#X obj 175 90 osc~ 20;
#X obj 230 167 noise~;
#X obj 121 215 *~;
#X obj 121 411 dac~;
#X obj 230 189 hip~ 8000;
#X obj 175 112 *~ 14;
#X obj 320 68 noise~;
#X obj 322 159 clip~ 0 1;
#X obj 322 135 *~ 1e+09;
#X obj 121 309 *~;
#X obj 121 241 bp~ 10000 15;
#X obj 230 213 *~ 0.1;
#X obj 304 226 clip~ 0 1;
#X obj 305 251 *~;
#X obj 303 181 osc~ 0.3;
#X obj 321 90 lop~ 0.2;
#X obj 322 112 lop~ 0.2;
#X obj 121 342 *~ 0.2;
#X obj 303 203 *~ 3;
#X obj 122 389 *~;
#X obj 138 364 inlet~;
#X connect 0 0 1 0;
#X connect 1 0 6 0;
#X connect 2 0 1 1;
#X connect 3 0 2 0;
#X connect 4 0 9 0;
#X connect 5 0 8 0;
#X connect 6 0 14 0;
#X connect 8 0 6 1;
#X connect 8 0 15 0;
#X connect 9 0 3 0;
#X connect 9 0 3 1;
#X connect 10 0 19 0;
#X connect 11 0 17 1;
#X connect 12 0 11 0;
#X connect 13 0 21 0;
#X connect 14 0 13 0;
#X connect 15 0 14 0;
#X connect 16 0 17 0;
#X connect 17 0 13 1;
#X connect 18 0 22 0;
#X connect 19 0 20 0;
#X connect 20 0 12 0;
#X connect 21 0 23 0;
#X connect 22 0 16 0;
#X connect 23 0 7 0;
#X connect 23 0 7 1;
#X connect 24 0 23 1;
#X restore 268 126 pd flutter;
#X obj 212 -26 inlet;
#X connect 16 0 1 0;
#X connect 17 0 14 0;
#X connect 18 0 13 0;
#X connect 19 0 11 0;
#X connect 20 0 10 0;
#X connect 21 0 35 0;
#X connect 22 0 7 0;
#X connect 23 0 8 0;
#X connect 24 0 9 0;
#X connect 25 0 2 0;
#X connect 26 0 0 0;
#X connect 27 0 6 0;
#X connect 28 0 3 0;
#X connect 29 0 12 0;
#X connect 30 0 4 0;
#X connect 31 0 5 0;
#X connect 32 0 15 0;
#X connect 34 0 33 0;
#X connect 36 0 28 0;
#X connect 36 0 29 0;
#X connect 36 0 22 0;
#X connect 36 0 23 0;
#X connect 36 0 24 0;
#X connect 36 0 26 0;
#X connect 36 0 19 0;
#X connect 36 0 34 0;
#X connect 36 0 32 0;
#X connect 36 0 25 0;
#X connect 36 0 21 0;
#X connect 36 0 31 0;
#X connect 36 0 30 0;
#X connect 36 0 27 0;
#X connect 36 0 16 0;
#X connect 36 0 17 0;
#X connect 36 0 18 0;
#X connect 36 0 20 0;
#X restore 728 474 pd insects;
#X obj 599 444 hsl 128 15 0 1 0 0 empty empty rain-rain-go-away 12
7 1 8 -262144 -1 -1 0 1;
#X obj 386 340 route 2 5;
#X obj 382 305 pack f f;
#X obj 177 298 bang;
#X obj 812 410 route;
#X obj 616 387 route 0 1;
#X msg 602 416 1;
#X msg 637 412 0;
#X msg 523 108 1;
#X obj 505 445 metro 5000;
#X obj 510 398 route 0 1;
#X msg 483 421 0;
#X msg 511 470 1;
#X text 141 473 osc_send;
#X text 90 180 osc_receive;
#X text 781 312 counter;
#X text 643 544 Farnell patches;
#X connect 0 0 41 0;
#X connect 1 0 2 0;
#X connect 2 0 27 0;
#X connect 2 0 28 0;
#X connect 3 0 1 0;
#X connect 4 0 5 0;
#X connect 5 0 6 0;
#X connect 5 0 4 1;
#X connect 5 0 12 0;
#X connect 5 0 23 0;
#X connect 6 0 38 0;
#X connect 6 0 48 0;
#X connect 7 0 4 1;
#X connect 9 0 10 0;
#X connect 9 0 12 1;
#X connect 10 0 7 0;
#X connect 11 0 22 0;
#X connect 11 0 54 0;
#X connect 12 0 7 0;
#X connect 13 0 15 0;
#X connect 13 1 16 0;
#X connect 13 2 17 0;
#X connect 13 3 18 0;
#X connect 13 4 19 0;
#X connect 14 0 15 0;
#X connect 14 0 16 0;
#X connect 14 0 17 0;
#X connect 14 0 18 0;
#X connect 14 0 19 0;
#X connect 15 0 56 0;
#X connect 16 0 51 0;
#X connect 17 0 44 0;
#X connect 18 0 45 0;
#X connect 19 0 50 0;
#X connect 19 0 0 0;
#X connect 20 0 13 0;
#X connect 21 0 4 0;
#X connect 22 0 9 0;
#X connect 23 0 20 0;
#X connect 23 1 14 0;
#X connect 25 0 24 0;
#X connect 25 0 39 0;
#X connect 28 0 30 0;
#X connect 29 0 48 1;
#X connect 29 0 49 0;
#X connect 30 0 29 0;
#X connect 30 1 21 0;
#X connect 30 2 31 0;
#X connect 31 0 25 0;
#X connect 32 0 34 0;
#X connect 34 0 33 0;
#X connect 35 0 34 0;
#X connect 36 0 35 0;
#X connect 37 0 32 0;
#X connect 38 0 36 0;
#X connect 39 0 40 0;
#X connect 40 0 34 0;
#X connect 46 0 43 0;
#X connect 47 0 46 0;
#X connect 47 1 0 0;
#X connect 48 0 47 0;
#X connect 49 0 48 0;
#X connect 51 0 52 0;
#X connect 52 0 46 0;
#X connect 53 0 46 0;
#X connect 54 0 25 0;
#X connect 55 0 58 0;
#X connect 56 0 57 0;
#X connect 56 1 55 0;
#X connect 57 0 55 0;
#X connect 58 0 42 0;
